<svg xmlns="http://www.w3.org/2000/svg" viewBox="0 0 77.93 80.46"><defs><style>.cls-1{isolation:isolate;}.cls-2{fill:#014225;mix-blend-mode:multiply;}.cls-3,.cls-4,.cls-5{fill:#fff;}.cls-4{font-size:5.69px;}.cls-4,.cls-5{font-family:Poppins-Bold, Poppins Bold;font-weight:700;}.cls-5{font-size:5.69px;}</style></defs><title>logo</title><g class="cls-1"><g id="Layer_1" data-name="Layer 1"><circle class="cls-2" cx="51.24" cy="50.57" r="25.71" transform="translate(-32.18 45.3) rotate(-54.25)"/><path class="cls-3" d="M59.33,59.75a.7.7,0,0,0-.24-.71A17,17,0,0,0,54.85,56a18,18,0,0,0-8-2.05l1.4-.52c1.18-.44,2.4-.89,3.59-1.39a29.1,29.1,0,0,0,3.49-1.73h0c.13.53.71.89,1.52.95s1.83.1,2.75.1a37.08,37.08,0,0,0,10.95-1.65.45.45,0,0,0,.24-.19.72.72,0,0,0,0-.67,1.44,1.44,0,0,0-1-.67h0a30,30,0,0,0-9.13-.22c-.24,0-.51.06-.8.09-.5.05-1.05.11-1.59.2a13.15,13.15,0,0,0,3-3.69,22.53,22.53,0,0,0,2-7.33.4.4,0,0,0-.13-.36.42.42,0,0,0-.37-.1,10.86,10.86,0,0,0-7.85,10.94,2.81,2.81,0,0,0,.53,1.6,28.32,28.32,0,0,1-3.9,2c-.83.35-1.67.67-2.52,1l0,0c.56-.67,1.24-1.21,1.73-1.93a6.12,6.12,0,0,0,.85-4.17,18.36,18.36,0,0,0-1.21-4.16c-.43-1.14-.87-2.28-1.3-3.41-.69.08-1.14.76-1.4,1.41A12.1,12.1,0,0,0,47,44.81a25,25,0,0,0,.89,6,7.85,7.85,0,0,0,.44,1.45l.1.18-.46.17c-1.78.66-3.61,1.34-5.36,2.18a7.1,7.1,0,0,0,.5-1.38A6.58,6.58,0,0,0,43,50a10.46,10.46,0,0,0-4.49-5.4,1,1,0,0,0-.79-.2c-.28.07-.61.31-.64,1l-.17,4A11.22,11.22,0,0,0,37,51.85a7,7,0,0,0,2.51,3.91,2.31,2.31,0,0,0,.74.33A21.77,21.77,0,0,0,36,59.59a9.22,9.22,0,0,0-2.29,3.7.42.42,0,0,0,.29.5h.11a.41.41,0,0,0,.39-.3,7.81,7.81,0,0,1,2.1-3.35A20.12,20.12,0,0,1,38,58.72a.75.75,0,0,0,0,.16c-.27,2.07,5.24,1.22,6.17.79a.2.2,0,0,0,.1-.08c0-.09-.07-.17-.15-.21-.65-.29-3.83-1.63-5.33-1.28a21,21,0,0,1,2.05-1.44,24.78,24.78,0,0,1,2.5-1.32,1.59,1.59,0,0,0,.42,1.21,8.84,8.84,0,0,0,4,2.62,23.21,23.21,0,0,0,5.58,1c1,.09,2,.18,3,.18a14.87,14.87,0,0,0,2.31-.17A.71.71,0,0,0,59.33,59.75ZM62,37.82c-.41.93-.84,1.88-1.34,2.77-.27.51-.58,1-.87,1.49-.43.71-.88,1.44-1.25,2.2L58,45.38a19.2,19.2,0,0,1-1.84,3.38l-.08.06a1,1,0,0,1-.2-.28,23.55,23.55,0,0,1,.68-3.32A14.82,14.82,0,0,1,58,41.72a18.94,18.94,0,0,1,2.44-3.13A9.73,9.73,0,0,1,62,37.82Zm.33-.12c-.14.93-.29,1.86-.5,2.78-1.56,2.47-3.1,5-4.58,7.49l-.59.45a23.68,23.68,0,0,0,1.55-3c.17-.37.34-.74.51-1.09.37-.75.81-1.48,1.24-2.18.3-.49.6-1,.88-1.5.53-1,1-2,1.42-3ZM56.88,50.41c-.5,0-.76-.22-.79-.34s0,0,0-.07a75.94,75.94,0,0,1,10.44-.67h.19a14.37,14.37,0,0,0,2.45-.12A36.39,36.39,0,0,1,56.88,50.41Zm3-1.59.82-.09a30,30,0,0,1,3.78-.24,28.47,28.47,0,0,1,5.05.44,12.07,12.07,0,0,1-2.82.2h-.19a75.28,75.28,0,0,0-10.28.65,1.26,1.26,0,0,1,.24-.19A9,9,0,0,1,59.89,48.82Zm.63-4.68a12.2,12.2,0,0,1-2.82,3.44c1.29-2.17,2.62-4.34,4-6.49A13.65,13.65,0,0,1,60.52,44.14Zm-.8-5.07a18.07,18.07,0,0,0-1.9,2.54,14.9,14.9,0,0,0-1.46,3.56,22.24,22.24,0,0,0-.62,2.94,4.61,4.61,0,0,1-.07-.5A10,10,0,0,1,59.72,39.07ZM44.68,55a39.37,39.37,0,0,1,12.13,3.16l.45.36c-.63-.07-1.24-.09-1.84-.11a17.94,17.94,0,0,1-2.91-.26,44.57,44.57,0,0,1-6.46-1.54,2.89,2.89,0,0,1-1.67-1.46A1.4,1.4,0,0,1,44.68,55ZM56,57.58a39.84,39.84,0,0,0-10.83-2.76,4.62,4.62,0,0,1,.77-.1h.57a17.22,17.22,0,0,1,8,2A14.68,14.68,0,0,1,56,57.58Zm-15.63-7a12.77,12.77,0,0,1,0,3.09c0,.49-.06,1-.06,1.51a11.54,11.54,0,0,1-1.51-3.74,33.73,33.73,0,0,1-1-6.24A9.94,9.94,0,0,1,40.38,50.57Zm.2,0a10.81,10.81,0,0,0-2-4.94A13,13,0,0,1,40,46.8a11.49,11.49,0,0,1,.86,8.55h-.28c0-.56,0-1.12.07-1.67A13.21,13.21,0,0,0,40.58,50.53Zm1.62-.31a5.76,5.76,0,0,1,.08,3c-.28,1.14-.73,1.91-1.2,2.08a11.79,11.79,0,0,0-.63-8A7.63,7.63,0,0,1,42.2,50.22ZM37.77,51.7a9.54,9.54,0,0,1-.07-2.27l.11-2.84a33.56,33.56,0,0,0,.85,4.89,11.88,11.88,0,0,0,1.5,3.73l-.24-.13A6.08,6.08,0,0,1,37.77,51.7Zm15.67,7.69a22.24,22.24,0,0,1-5.38-1,8.12,8.12,0,0,1-3.66-2.36c-.16-.2-.33-.49-.23-.69a.47.47,0,0,1,.06-.09A3,3,0,0,0,46,56.78a43.59,43.59,0,0,0,6.48,1.55,18.4,18.4,0,0,0,2.94.26c.69,0,1.4,0,2.14.14.27.23.54.46.79.71A20.63,20.63,0,0,1,53.44,59.39Zm5.1.19.26-.26-.24.34A.13.13,0,0,1,58.54,59.58Z" transform="translate(-12.45 -17.31)"/><path class="cls-3" d="M65.56,41a2.24,2.24,0,0,0-2,.32,1.75,1.75,0,0,0-.46,2,1.71,1.71,0,0,0,1.53,1,1.27,1.27,0,0,0,.34,0A2.06,2.06,0,0,0,66.39,43a1.75,1.75,0,0,0,.1-1.11A1.29,1.29,0,0,0,65.56,41Zm.07,1.68a1.29,1.29,0,0,1-.8.81.87.87,0,0,1-.95-.48A.94.94,0,0,1,64.13,42h0a1.29,1.29,0,0,1,.78-.22,1.4,1.4,0,0,1,.41.06.48.48,0,0,1,.38.31A.92.92,0,0,1,65.63,42.69Z" transform="translate(-12.45 -17.31)"/><path class="cls-3" d="M68.07,46.82a1.64,1.64,0,0,0,1.05.37,1.68,1.68,0,0,0,.69-.15,1.27,1.27,0,0,0,.5-.36,1.35,1.35,0,0,0,.23-1.28,1.59,1.59,0,0,0-1-1.11,1.52,1.52,0,0,0-1.4.32h0a1.51,1.51,0,0,0-.4.44A1.46,1.46,0,0,0,68.07,46.82Zm.38-1.36a.9.9,0,0,1,.19-.21.76.76,0,0,1,.66-.19.84.84,0,0,1,.47.58.59.59,0,0,1-.07.51.61.61,0,0,1-.22.15.84.84,0,0,1-.87-.1A.61.61,0,0,1,68.45,45.46Z" transform="translate(-12.45 -17.31)"/><path class="cls-3" d="M69.37,41a.83.83,0,0,0,.51.19.66.66,0,0,0,.55-.4,1.37,1.37,0,0,0,.12-.69c0-.94-1.34-.59-1.56.07a.7.7,0,0,0,0,.32A.85.85,0,0,0,69.37,41Z" transform="translate(-12.45 -17.31)"/><path class="cls-3" d="M22.08,41.86l-.93-.28A31.65,31.65,0,0,0,20,47.76l1,.09A30.42,30.42,0,0,1,22.08,41.86Z" transform="translate(-12.45 -17.31)"/><path class="cls-3" d="M79.71,42.42a31.09,31.09,0,0,1,1.31,6l1-.12a31.48,31.48,0,0,0-1.36-6.14Z" transform="translate(-12.45 -17.31)"/><text class="cls-4" transform="matrix(0.45, -0.9, 0.9, 0.45, 12.37, 22.15)">H</text><text class="cls-4" transform="translate(15.32 16.86) rotate(-52.22)">E</text><text class="cls-4" transform="translate(18.63 12.92) rotate(-41.63)">R</text><text class="cls-4" transform="matrix(0.86, -0.51, 0.51, 0.86, 22.81, 9.5)">B</text><text class="cls-4" transform="translate(27.58 6.92) rotate(-19.32)">A</text><text class="cls-4" transform="matrix(0.99, -0.14, 0.14, 0.99, 33.15, 5.24)">L</text><text class="cls-4" transform="translate(38.18 4.74) rotate(0.93)"> </text><text class="cls-4" transform="translate(41.78 4.87) rotate(10.09)">H</text><text class="cls-4" transform="translate(47.67 6.16) rotate(22.58)">O</text><text class="cls-4" transform="translate(53.32 8.8) rotate(34.95)">U</text><text class="cls-4" transform="translate(58.09 12.46) rotate(46.15)">S</text><text class="cls-4" transform="matrix(0.55, 0.83, -0.83, 0.55, 61.5, 16.32)">E</text><text class="cls-5" transform="translate(5.61 33.73) rotate(86.55)">O</text><text class="cls-5" transform="matrix(0.26, 0.97, -0.97, 0.26, 6.36, 40.56)">R</text><text class="cls-5" transform="translate(8.16 46.33) rotate(63.99)">G</text><text class="cls-5" transform="translate(11.32 52.12) rotate(52.71)">A</text><text class="cls-5" transform="matrix(0.75, 0.66, -0.66, 0.75, 15.45, 57.08)">N</text><text class="cls-5" transform="matrix(0.85, 0.52, -0.52, 0.85, 20.65, 61.16)">I</text><text class="cls-5" transform="translate(24.31 63.23) rotate(22.46)">C</text><text class="cls-5" transform="translate(30.09 65.3) rotate(13.56)"> </text><text class="cls-5" transform="translate(34.07 66.1) rotate(4.88)">P</text><text class="cls-5" transform="translate(40.01 66.35) rotate(-5.58)">R</text><text class="cls-5" transform="translate(45.99 65.5) rotate(-17.02)">O</text><text class="cls-5" transform="translate(52.48 63.18) rotate(-29)">D</text><text class="cls-5" transform="translate(58.23 59.65) rotate(-40.63)">U</text><text class="cls-5" transform="matrix(0.62, -0.79, 0.79, 0.62, 63.06, 55.09)">C</text><text class="cls-5" transform="matrix(0.46, -0.89, 0.89, 0.46, 66.73, 49.88)">T</text><text class="cls-5" transform="translate(69.1 44.72) rotate(-72.76)">S</text></g></g></svg>